# xmcd CD database file
#
# Track frame offsets:
#	150
#	7510
#	25587
#	47475
#	64342
#	86042
#	104157
#	121210
#	145127
#	169415
#
# Disc length: 2621 seconds
#
# Revision: 0
# Processed by: cddbd v1.5.1PL0 Copyright (c) Steve Scherf et al.
# Submitted via: CDex 1.51
#
DISCID=7d0a3b0a
DTITLE=彩　恵津子 - Unknown Things
DYEAR=1900
DGENRE=Pop
TTITLE0=Caution〜Overture
TTITLE1=オレンジの月
TTITLE2=最後の恋人
TTITLE3=思い出のグリフィスパーク
TTITLE4=Nothin' But Love Song
TTITLE5=ヒールの騎士
TTITLE6=Angelic
TTITLE7=Jumpin' In The Rain
TTITLE8=やわらかい約束
TTITLE9=Unknown Things
EXTD=
EXTT0=
EXTT1=
EXTT2=
EXTT3=
EXTT4=
EXTT5=
EXTT6=
EXTT7=
EXTT8=
EXTT9=
PLAYORDER=
